<?xml version="1.0" standalone="no"?>
<!DOCTYPE svg PUBLIC "-//W3C//DTD SVG 20010904//EN"
 "http://www.w3.org/TR/2001/REC-SVG-20010904/DTD/svg10.dtd">
<svg version="1.0" xmlns="http://www.w3.org/2000/svg"
 width="1015.000000pt" height="1280.000000pt" viewBox="0 0 1015.000000 1280.000000"
 preserveAspectRatio="xMidYMid meet">
<metadata>
Created by potrace 1.15, written by Peter Selinger 2001-2017
</metadata>
<g transform="translate(0.000000,1280.000000) scale(0.100000,-0.100000)"
fill="#0c164f" stroke="none">
<path d="M2120 12773 c0 -10 34 -56 76 -103 286 -318 493 -597 573 -773 92
-199 221 -641 306 -1044 10 -47 35 -43 35 5 0 120 -70 571 -121 782 -82 335
-164 473 -464 779 -139 142 -385 371 -399 371 -3 0 -6 -8 -6 -17z"/>
<path d="M2780 12572 c0 -5 41 -55 91 -113 133 -152 264 -329 308 -418 62
-122 142 -381 196 -633 17 -78 35 -103 35 -50 0 111 -64 461 -110 607 -46 143
-102 219 -317 433 -168 167 -203 197 -203 174z"/>
<path d="M1857 12017 c-45 -29 -51 -30 -97 -21 l-49 10 -91 -170 -91 -171 32
-75 c98 -231 179 -335 341 -443 51 -34 112 -87 147 -126 l61 -69 0 -130 c0
-72 -4 -132 -9 -134 -5 -1 -19 -115 -31 -253 -15 -169 -27 -259 -37 -280 -9
-16 -54 -96 -100 -178 l-83 -147 68 -80 c65 -75 69 -82 76 -141 3 -34 6 -130
6 -213 1 -301 30 -380 228 -608 106 -124 181 -192 245 -225 56 -28 80 -30 215
-18 l94 8 33 -36 c43 -46 74 -48 155 -7 71 36 92 37 155 9 38 -17 58 -20 99
-15 62 9 204 63 304 118 41 22 75 38 76 36 1 -2 42 -232 90 -513 l88 -510 67
-127 c58 -112 70 -129 103 -144 21 -9 38 -22 38 -28 0 -7 -29 -99 -65 -206
l-65 -194 0 -341 c0 -187 5 -608 10 -935 l10 -595 55 -430 c50 -396 56 -474
84 -990 47 -854 57 -1202 41 -1410 -18 -234 -10 -347 34 -515 33 -127 304
-999 326 -1047 5 -13 16 -23 25 -23 8 0 15 -3 15 -7 0 -4 -48 -55 -106 -114
-118 -119 -123 -129 -124 -264 0 -98 18 -138 81 -177 59 -37 197 -77 289 -85
127 -9 268 37 340 112 33 34 35 40 36 104 l0 69 64 71 c34 39 66 71 69 71 7 0
180 -94 336 -183 102 -58 268 -126 372 -152 70 -18 216 -35 298 -35 83 0 133
16 173 56 34 34 35 36 29 97 -4 34 -18 100 -32 147 l-25 85 -158 150 c-86 82
-191 182 -231 221 l-75 72 26 33 c14 19 51 62 82 97 54 61 56 65 56 120 0 86
-33 192 -106 339 l-65 131 41 294 c39 286 41 315 85 1233 l46 940 54 445 c50
414 57 497 97 1187 l42 741 -42 184 -43 184 31 70 c29 63 33 86 50 284 11 118
21 236 24 263 l5 47 -41 0 c-40 0 -40 0 -34 33 49 281 78 555 106 1021 16 275
32 501 34 503 12 13 233 46 506 77 l305 35 256 75 256 75 179 126 c98 69 235
177 304 239 89 80 203 165 395 296 149 101 372 262 498 357 215 165 227 176
227 207 l0 33 110 17 c61 9 152 32 203 50 l92 34 56 102 c32 56 74 150 95 209
20 58 59 151 86 205 28 55 51 107 53 117 2 10 55 82 118 161 l114 143 25 103
c14 56 24 102 21 102 -2 0 -66 -36 -141 -79 -152 -88 -151 -87 -317 -291 -65
-80 -183 -211 -264 -292 l-146 -148 -95 -31 c-52 -17 -102 -38 -110 -45 -46
-39 -711 -329 -941 -409 -224 -78 -301 -95 -436 -95 -145 0 -185 -11 -356 -96
-110 -56 -217 -87 -259 -77 -13 3 -33 15 -46 26 -40 37 -84 5 -157 -115 -28
-46 -84 -73 -205 -102 -150 -36 -198 -42 -660 -81 -228 -20 -469 -42 -535 -50
-66 -8 -123 -15 -128 -15 -7 0 -107 201 -107 215 0 3 17 12 37 20 21 9 46 23
57 33 29 26 66 112 66 155 0 37 -30 109 -50 122 -5 3 -10 29 -10 57 0 45 4 55
31 78 l31 26 -31 74 -32 73 31 32 c16 17 30 34 30 38 0 4 -13 29 -30 55 -19
31 -30 63 -30 85 0 42 -9 39 228 58 210 17 208 22 -43 130 -146 63 -194 88
-191 99 3 8 12 33 20 55 23 61 20 135 -7 176 -30 45 -74 59 -167 52 -54 -4
-113 1 -210 18 -182 31 -319 31 -420 0 -180 -55 -286 -135 -431 -326 -37 -49
-93 -114 -123 -143 -68 -66 -86 -112 -62 -157 22 -40 81 -78 173 -113 l73 -27
0 -59 0 -58 119 -162 119 -161 -9 -85 c-4 -47 -8 -95 -8 -107 -1 -17 -8 -22
-33 -25 -32 -3 -33 -5 -63 -100 -16 -53 -33 -100 -36 -103 -4 -3 -104 -17
-223 -30 -203 -23 -231 -29 -434 -89 -119 -36 -361 -112 -537 -168 l-320 -104
-5 191 -5 190 -87 195 c-85 191 -174 427 -164 437 3 3 -6 27 -19 54 -24 46
-25 56 -25 246 0 109 -5 233 -12 275 l-11 77 -119 106 -118 107 0 134 c0 127
1 137 25 171 13 20 22 40 20 44 -3 4 -23 10 -45 14 l-40 7 0 82 c0 77 -2 84
-28 109 -24 23 -37 27 -89 27 -51 0 -67 4 -91 25 -17 14 -31 25 -33 24 -2 0
-26 -15 -52 -32z m3177 -7257 c4 -118 18 -318 30 -445 21 -220 22 -248 11
-655 l-10 -425 53 -350 54 -350 -37 -345 c-20 -190 -39 -352 -41 -360 -3 -9
-14 2 -30 30 -14 25 -33 52 -43 60 -21 17 -20 0 -81 930 -32 480 -40 666 -40
900 0 282 2 317 50 800 28 278 54 516 57 530 10 38 19 -74 27 -320z"/>
<path d="M150 11544 c0 -35 84 -398 126 -542 77 -265 145 -418 242 -548 70
-92 251 -270 405 -399 145 -121 420 -326 431 -322 6 2 11 8 13 13 2 5 -82 89
-187 187 -269 252 -491 494 -597 652 -93 138 -221 433 -343 793 -41 118 -67
182 -76 182 -8 0 -14 -7 -14 -16z"/>
<path d="M6 10872 c-11 -17 53 -288 103 -434 62 -182 126 -279 277 -416 149
-135 368 -301 380 -289 4 3 -68 78 -159 167 -328 318 -388 412 -532 817 -31
87 -58 159 -60 161 -2 2 -5 -1 -9 -6z"/>
</g>
</svg>
